<?xml version="1.0" standalone="no"?>
<!DOCTYPE svg PUBLIC "-//W3C//DTD SVG 20010904//EN"
 "http://www.w3.org/TR/2001/REC-SVG-20010904/DTD/svg10.dtd">
<svg version="1.0" xmlns="http://www.w3.org/2000/svg"
 width="260.000000pt" height="260.000000pt" viewBox="0 0 260.000000 260.000000"
 preserveAspectRatio="xMidYMid meet">
<metadata>
Created by potrace 1.11, written by Peter Selinger 2001-2013
</metadata>
<g transform="translate(0.000000,260.000000) scale(0.100000,-0.100000)"
fill="#000000" stroke="none">
<path d="M1698 2563 c-24 -21 -52 -47 -63 -58 -29 -29 -148 -124 -230 -183
l-70 -51 -1 -223 c-2 -223 -12 -654 -19 -823 -2 -49 -6 -151 -9 -225 -4 -74
-8 -162 -11 -195 -2 -33 -7 -98 -10 -145 -4 -47 -8 -114 -11 -150 -3 -36 -7
-90 -8 -120 -4 -63 -16 -183 -22 -220 -2 -14 -7 -52 -10 -85 -3 -33 -7 -64 -8
-70 -2 -19 134 -9 213 16 178 56 297 161 329 291 9 34 12 350 12 1162 0 1109
0 1116 -20 1116 -11 0 -39 -17 -62 -37z"/>
<path d="M1027 1934 c-65 -33 -257 -107 -257 -99 0 13 -60 -20 -61 -33 0 -10
-2 -134 -4 -277 -5 -387 -22 -757 -41 -915 -14 -118 -22 -166 -40 -234 -8 -33
-19 -65 -25 -72 -22 -26 139 2 240 43 129 51 210 133 249 252 21 62 21 78 22
717 0 360 -3 654 -7 654 -5 -1 -39 -17 -76 -36z"/>
</g>
</svg>
